<svg xmlns="http://www.w3.org/2000/svg" viewBox="0 0 300 116.11"><defs><style>.d{fill:#41baeb;}</style></defs><g id="a"/><g id="b"><g id="c"><g><path class="d" d="M7.55,66.73L0,104.47H6.48l1.54-8.71h6.57l1.49,8.71h6.38l-7.55-37.74H7.55Zm1.17,24.65l2.56-15.84,2.56,15.84h-5.13Z"/><polygon class="d" points="44.87 66.73 39.28 92.87 33.92 66.73 26.79 66.73 26.14 104.47 31.31 104.47 31.82 78.15 37.27 104.47 41.42 104.47 46.78 78.24 47.34 104.47 52.46 104.47 51.77 66.73 44.87 66.73"/><rect class="d" x="69.56" y="66.73" width="6.8" height="37.74"/><path class="d" d="M109.8,67.64c-1.48-.89-3.52-1.33-6.13-1.33-2.77,0-4.93,.51-6.5,1.54-1.57,1.03-2.66,2.49-3.28,4.38-.62,1.9-.93,4.13-.93,6.71v13.47c0,2.45,.31,4.62,.93,6.5,.62,1.88,1.72,3.36,3.28,4.45s3.74,1.63,6.5,1.63,4.74-.49,6.22-1.47c1.48-.98,2.51-2.33,3.1-4.05,.59-1.72,.89-3.7,.89-5.94v-3.03h-6.62v3.4c0,1.12-.06,2.13-.19,3.03-.12,.9-.43,1.62-.91,2.17-.48,.54-1.3,.82-2.45,.82-.99,0-1.78-.23-2.35-.68-.58-.45-.97-1.12-1.19-2-.22-.89-.33-2.01-.33-3.38v-16.4c0-1.15,.08-2.18,.23-3.1,.16-.92,.5-1.65,1.05-2.19s1.41-.82,2.59-.82,2.01,.26,2.49,.77,.78,1.2,.89,2.07c.11,.87,.16,1.83,.16,2.89v3.26h6.62v-3.17c0-2.17-.31-4.08-.93-5.73-.62-1.65-1.67-2.91-3.14-3.8Z"/><path class="d" d="M135.38,67.76c-1.57-.96-3.72-1.44-6.45-1.44s-4.8,.48-6.38,1.44c-1.58,.96-2.72,2.35-3.4,4.17-.68,1.82-1.02,4-1.02,6.55v14.12c0,2.55,.34,4.75,1.02,6.62s1.82,3.29,3.4,4.29c1.58,.99,3.71,1.49,6.38,1.49s4.88-.5,6.45-1.51c1.57-1.01,2.7-2.44,3.4-4.29s1.05-4.03,1.05-6.55v-14.16c0-2.55-.35-4.73-1.05-6.55-.7-1.82-1.83-3.21-3.4-4.17Zm-2.54,26.51c0,1.03-.09,1.97-.28,2.84-.19,.87-.55,1.55-1.09,2.05s-1.39,.75-2.54,.75-1.96-.25-2.52-.75c-.56-.5-.92-1.18-1.09-2.05s-.26-1.82-.26-2.84v-17.38c0-1.06,.09-2,.28-2.84,.19-.84,.56-1.5,1.12-1.98,.56-.48,1.38-.72,2.47-.72,1.15,0,2,.24,2.54,.72,.54,.48,.91,1.14,1.09,1.98,.19,.84,.28,1.79,.28,2.84v17.38Z"/><polygon class="d" points="153.99 93.43 149 66.73 142.9 66.73 150.5 104.47 157.3 104.47 164.89 66.73 158.65 66.73 153.99 93.43"/><polygon class="d" points="175.66 87.23 182.69 87.23 182.69 82.43 175.66 82.43 175.66 71.58 184.6 71.58 184.6 66.73 168.76 66.73 168.76 104.47 184.69 104.47 184.69 99.72 175.66 99.72 175.66 87.23"/><path class="d" d="M207.73,83.9c.67-.85,1.14-1.89,1.42-3.1,.28-1.21,.42-2.58,.42-4.1,0-2.52-.46-4.5-1.37-5.96-.92-1.46-2.25-2.49-4.01-3.1-1.76-.61-3.91-.91-6.45-.91h-9.04v37.74h6.9v-17.29h3.17l4.57,17.29h6.9l-5.27-18.59c1.18-.47,2.1-1.13,2.77-1.98Zm-5.1-3.49c-.34,.85-.91,1.48-1.7,1.86-.79,.39-1.86,.58-3.19,.58h-2.14v-11.42h2.52c1.96,0,3.28,.47,3.98,1.42,.7,.95,1.05,2.37,1.05,4.26,0,1.34-.17,2.43-.51,3.28Z"/><polygon class="d" points="221.74 87.23 228.77 87.23 228.77 82.43 221.74 82.43 221.74 71.58 230.68 71.58 230.68 66.73 214.84 66.73 214.84 104.47 230.77 104.47 230.77 99.72 221.74 99.72 221.74 87.23"/><path class="d" d="M250.88,67.99c-1.72-.84-4.12-1.26-7.2-1.26h-8.9v37.74h9.18c2.95,0,5.27-.44,6.97-1.33,1.69-.89,2.9-2.24,3.63-4.05,.73-1.82,1.09-4.09,1.09-6.83v-13.79c0-2.67-.37-4.88-1.09-6.62-.73-1.74-1.96-3.03-3.68-3.87Zm-2.21,24.46c0,1.55-.08,2.87-.23,3.94-.16,1.07-.58,1.89-1.26,2.45-.68,.56-1.82,.84-3.4,.84h-2.1v-28.05h2c1.52,0,2.62,.22,3.31,.65,.68,.43,1.13,1.12,1.35,2.05,.22,.93,.33,2.16,.33,3.68v14.44Z"/><path class="d" d="M189.43,.05h0Z"/><path class="d" d="M299.82,52.16h0c-.11-.47-.26-1.07-.45-1.81-2.11-8.29-7.08-16.03-14.31-22.83C268.75,12.17,240.87,1.59,207.96,.14c-2.85-.12-7.47-.11-10.45-.11-2.74,0-5.31-.09-8.13,.02-47.73,2.24-86.21,23.3-93.08,50.29-1.07,4.2-1,4.08,2.14,.25,5.48-6.68,17.28-11.3,30.95-11.3s26.55,5.05,31.67,12.23c1.24,1.73,1.83,2.7,2.35,2.9,1.74-2.39,3.83-4.59,6.19-6.54,.28-.24,.57-.47,.87-.7,.24-.19,.49-.38,.74-.56l.04-.03c7.1-5.24,16.4-8.43,26.58-8.43s19.48,3.18,26.58,8.42c.02,.01,.04,.03,.06,.05,.24,.18,.48,.36,.71,.54,.31,.23,.6,.47,.89,.72,2.36,1.95,4.44,4.14,6.18,6.53,.52-.2,1.12-1.17,2.35-2.9,4.66-6.53,15.23-11.29,27.87-12.1,1.25-.08,2.51-.13,3.8-.13,3.28,0,6.45,.27,9.46,.77,4.2,.7,8.07,1.84,11.44,3.34,4.26,1.9,7.73,4.35,10.05,7.19,1.19,1.45,1.94,2.37,2.35,2.72h0c.49,.42,.51,.05,.24-1.16Z"/><rect class="d" x="267.02" y="103.48" width="12.72" height="12.63"/><path class="d" d="M293.26,51.67c-1.02-1.02-2.31-1.84-3.49-2.53-2-1.17-4.26-2.31-6.48-3,0,.59,.25,1.18,.25,1.78,0,3.42-.71,6.68-2.14,9.78-1.42,3.1-3.36,6.03-5.79,8.78-2.44,2.75-5.14,5.37-8.12,7.83v24.62h11.65v-.42l.02,.02c0-1.97-.02-3.94-.02-5.92v-6.32h-.03c-.01-3.08-.03-6.16-.04-9.24,3.42-2.72,6.43-5.57,9.02-8.55,1.74-2,3.18-4.23,4.45-6.55,1.16-2.13,2.92-4.64,2.46-7.18-.22-1.23-.89-2.26-1.76-3.13Z"/></g></g></g></svg>
